<svg width="21" height="21" viewBox="0 0 21 21" fill="none" xmlns="http://www.w3.org/2000/svg">
<path fill-rule="evenodd" clip-rule="evenodd" d="M20.513 15.587L20.4189 15.8328C18.8169 18.9809 15.9788 20.9126 11.9304 20.9978C10.0378 21.0371 8.23447 20.5471 7.05655 20.014C4.51425 18.8613 2.37606 16.7233 1.20823 14.4391C-0.466914 11.1646 -0.768962 6.60964 2.71411 3.2074C2.76778 3.2074 2.29166 3.94511 2.34532 3.94511L2.24946 4.25992C-0.260502 12.191 7.47235 18.9876 14.9894 18.2103C16.7959 18.0235 19.0997 17.0249 20.513 15.587Z" fill="#FDFFFC"/>
<path fill-rule="evenodd" clip-rule="evenodd" d="M15.9638 12.3074C17.855 12.3205 19.8303 11.4284 21 10.1759C19.9767 12.7979 17.0135 14.4832 13.0396 13.9471C9.71251 13.4978 6.54295 10.1185 6.21636 6.73247C5.97761 4.26816 6.82871 2.79736 8.23093 1.01337C7.74357 1.94645 7.56147 2.66611 7.51606 3.12513C6.98329 8.45581 11.7351 12.2796 15.9638 12.3074Z" fill="#FDFFFC"/>
<path fill-rule="evenodd" clip-rule="evenodd" d="M20.8104 5.68646C20.5163 6.367 18.8235 7.6524 18.0761 7.81304C15.1162 8.44937 13.2204 7.03273 12.2276 5.42073C12.0799 5.17976 11.8069 4.52236 11.7581 4.35501C11.373 3.03351 11.5501 1.0347 12.6989 0C12.3528 0.983777 12.3023 2.12658 12.4844 2.86939C12.5947 3.31868 12.931 4.1027 13.2674 4.59597C13.8798 5.49457 14.268 5.71285 15.0545 6.18992C15.4086 6.40473 15.7886 6.57695 15.9528 6.62441C16.6984 6.8457 18.2727 7.42948 20.8104 5.68646Z" fill="#FDFFFC"/>
</svg>
